<svg t="1685468176230" class="icon" viewBox="0 0 1024 1024" version="1.1" xmlns="http://www.w3.org/2000/svg" p-id="6216" data-spm-anchor-id="a313x.7781069.0.i11" width="32" height="32"><path d="M480 704a224 224 0 1 1 224-224 224 224 0 0 1-224 224z m0-384a160 160 0 1 0 160 160 160 160 0 0 0-160-160zM128 256a128 128 0 1 1 128-128 128 128 0 0 1-128 128z m0-192a64 64 0 1 0 64 64 64 64 0 0 0-64-64zM128 1024a128 128 0 1 1 128-128 128 128 0 0 1-128 128z m0-192a64 64 0 1 0 64 64 64 64 0 0 0-64-64zM896 896a128 128 0 1 1 128-128 128 128 0 0 1-128 128z m0-192a64 64 0 1 0 64 64 64 64 0 0 0-64-64z" p-id="6217" data-spm-anchor-id="a313x.7781069.0.i10" class="" fill="#1296db"></path><path d="M610.464 614.784l35.84-53.12 186.72 125.984-35.84 53.12zM165.44 223.776l42.688-47.648 154.624 138.656-42.72 47.648zM177.536 809.28l157.248-199.968 50.304 39.552-157.248 200z" p-id="6218" data-spm-anchor-id="a313x.7781069.0.i12" class="selected" fill="#707070"></path></svg>